name rise44.9368peak50.754fall52.0217.mot
datacolumns 19
datarows 21
range 11.62329800000000 11.65663000000000
endheader
time	ground_force1_vx	ground_force1_vy	ground_force1_vz	ground_force1_px	ground_force1_py	ground_force1_pz	ground_force2_vx	ground_force2_vy	ground_force2_vz	ground_force2_px	ground_force2_py	ground_force2_pz	ground_torque1_x	ground_torque1_y	ground_torque1_z	ground_torque2_x	ground_torque2_y	ground_torque2_z	
11.62329800000000	2.68922900000000	705.53524300000004	42.76908800000000	0.25792400000000	0.00000000000000	0.11382700000000	0.00000000000000	0.00000000000000	0.00000000000000	0.00000000000000	0.00000000000000	0.00000000000000	0.00000000000000	21.11711600000000	0.00000000000000	0.00000000000000	0.00000000000000	0.00000000000000	
11.62495700000000	2.29469500000000	706.15771500000005	42.71171800000000	0.25692700000000	0.00000000000000	0.11382300000000	0.00000000000000	0.00000000000000	0.00000000000000	0.00000000000000	0.00000000000000	0.00000000000000	0.00000000000000	21.11900000000000	0.00000000000000	0.00000000000000	0.00000000000000	0.00000000000000	
11.62662800000000	1.90031500000000	706.80503699999997	42.65990200000000	0.25595700000000	0.00000000000000	0.11381800000000	0.00000000000000	0.00000000000000	0.00000000000000	0.00000000000000	0.00000000000000	0.00000000000000	0.00000000000000	21.12540600000000	0.00000000000000	0.00000000000000	0.00000000000000	0.00000000000000	
11.62829600000000	1.50602300000000	707.47525399999995	42.61355500000000	0.25501300000000	0.00000000000000	0.11381200000000	0.00000000000000	0.00000000000000	0.00000000000000	0.00000000000000	0.00000000000000	0.00000000000000	0.00000000000000	21.13624800000000	0.00000000000000	0.00000000000000	0.00000000000000	0.00000000000000	
11.62995600000000	1.11173800000000	708.16645700000004	42.57259500000000	0.25409600000000	0.00000000000000	0.11380500000000	0.00000000000000	0.00000000000000	0.00000000000000	0.00000000000000	0.00000000000000	0.00000000000000	0.00000000000000	21.15144300000000	0.00000000000000	0.00000000000000	0.00000000000000	0.00000000000000	
11.63162500000000	0.71736600000000	708.87678500000004	42.53694600000000	0.25320400000000	0.00000000000000	0.11379600000000	0.00000000000000	0.00000000000000	0.00000000000000	0.00000000000000	0.00000000000000	0.00000000000000	0.00000000000000	21.17090800000000	0.00000000000000	0.00000000000000	0.00000000000000	0.00000000000000	
11.63329400000000	0.32279900000000	709.60443699999996	42.50653300000000	0.25233700000000	0.00000000000000	0.11378600000000	0.00000000000000	0.00000000000000	0.00000000000000	0.00000000000000	0.00000000000000	0.00000000000000	0.00000000000000	21.19456500000000	0.00000000000000	0.00000000000000	0.00000000000000	0.00000000000000	
11.63495900000000	-0.07208600000000	710.34767599999998	42.48128900000000	0.25149400000000	0.00000000000000	0.11377500000000	0.00000000000000	0.00000000000000	0.00000000000000	0.00000000000000	0.00000000000000	0.00000000000000	0.00000000000000	21.22233400000000	0.00000000000000	0.00000000000000	0.00000000000000	0.00000000000000	
11.63662800000000	-0.46742500000000	711.10483799999997	42.46114900000000	0.25067400000000	0.00000000000000	0.11376300000000	0.00000000000000	0.00000000000000	0.00000000000000	0.00000000000000	0.00000000000000	0.00000000000000	0.00000000000000	21.25414100000000	0.00000000000000	0.00000000000000	0.00000000000000	0.00000000000000	
11.63829400000000	-0.86336700000000	711.87433799999997	42.44605500000000	0.24987700000000	0.00000000000000	0.11374900000000	0.00000000000000	0.00000000000000	0.00000000000000	0.00000000000000	0.00000000000000	0.00000000000000	0.00000000000000	21.28991400000000	0.00000000000000	0.00000000000000	0.00000000000000	0.00000000000000	
11.63996000000000	-1.26007600000000	712.65467799999999	42.43595500000000	0.24910100000000	0.00000000000000	0.11373500000000	0.00000000000000	0.00000000000000	0.00000000000000	0.00000000000000	0.00000000000000	0.00000000000000	0.00000000000000	21.32958300000000	0.00000000000000	0.00000000000000	0.00000000000000	0.00000000000000	
11.64162600000000	-1.65772400000000	713.44444999999996	42.43079900000000	0.24834400000000	0.00000000000000	0.11372000000000	0.00000000000000	0.00000000000000	0.00000000000000	0.00000000000000	0.00000000000000	0.00000000000000	0.00000000000000	21.37307900000000	0.00000000000000	0.00000000000000	0.00000000000000	0.00000000000000	
11.64329600000000	-2.05649800000000	714.24234200000001	42.43054700000000	0.24760700000000	0.00000000000000	0.11370300000000	0.00000000000000	0.00000000000000	0.00000000000000	0.00000000000000	0.00000000000000	0.00000000000000	0.00000000000000	21.42033700000000	0.00000000000000	0.00000000000000	0.00000000000000	0.00000000000000	
11.64495900000000	-2.45659400000000	715.04714500000000	42.43516000000000	0.24688600000000	0.00000000000000	0.11368600000000	0.00000000000000	0.00000000000000	0.00000000000000	0.00000000000000	0.00000000000000	0.00000000000000	0.00000000000000	21.47129500000000	0.00000000000000	0.00000000000000	0.00000000000000	0.00000000000000	
11.64662500000000	-2.85821900000000	715.85775400000000	42.44461000000000	0.24618100000000	0.00000000000000	0.11366800000000	0.00000000000000	0.00000000000000	0.00000000000000	0.00000000000000	0.00000000000000	0.00000000000000	0.00000000000000	21.52589200000000	0.00000000000000	0.00000000000000	0.00000000000000	0.00000000000000	
11.64829200000000	-3.26158600000000	716.67317600000001	42.45887000000000	0.24549100000000	0.00000000000000	0.11365000000000	0.00000000000000	0.00000000000000	0.00000000000000	0.00000000000000	0.00000000000000	0.00000000000000	0.00000000000000	21.58406900000000	0.00000000000000	0.00000000000000	0.00000000000000	0.00000000000000	
11.64996400000000	-3.66691600000000	717.49252799999999	42.47792100000000	0.24481300000000	0.00000000000000	0.11363000000000	0.00000000000000	0.00000000000000	0.00000000000000	0.00000000000000	0.00000000000000	0.00000000000000	0.00000000000000	21.64576900000000	0.00000000000000	0.00000000000000	0.00000000000000	0.00000000000000	
11.65162300000000	-4.07443700000000	718.31504500000005	42.50175100000000	0.24414600000000	0.00000000000000	0.11361000000000	0.00000000000000	0.00000000000000	0.00000000000000	0.00000000000000	0.00000000000000	0.00000000000000	0.00000000000000	21.71093700000000	0.00000000000000	0.00000000000000	0.00000000000000	0.00000000000000	
11.65328900000000	-4.48438200000000	719.14008000000001	42.53035100000000	0.24348800000000	0.00000000000000	0.11359000000000	0.00000000000000	0.00000000000000	0.00000000000000	0.00000000000000	0.00000000000000	0.00000000000000	0.00000000000000	21.77951800000000	0.00000000000000	0.00000000000000	0.00000000000000	0.00000000000000	
11.65495700000000	-4.89698400000000	719.96710399999995	42.56372000000000	0.24283700000000	0.00000000000000	0.11356900000000	0.00000000000000	0.00000000000000	0.00000000000000	0.00000000000000	0.00000000000000	0.00000000000000	0.00000000000000	21.85146100000000	0.00000000000000	0.00000000000000	0.00000000000000	0.00000000000000	
11.65663000000000	-5.31248100000000	720.79570799999999	42.60186100000000	0.24219300000000	0.00000000000000	0.11354800000000	0.00000000000000	0.00000000000000	0.00000000000000	0.00000000000000	0.00000000000000	0.00000000000000	0.00000000000000	21.92671300000000	0.00000000000000	0.00000000000000	0.00000000000000	0.00000000000000	
